<?xml version="1.0" encoding="UTF-8"?><!DOCTYPE score-partwise PUBLIC "-//Recordare//DTD MusicXML 3.1 Partwise//EN" "http://www.musicxml.org/dtds/partwise.dtd"><score-partwise version="3.1"><identification><encoding><software>MuseScore 3.4.2</software><encoding-date>2020-05-27</encoding-date><supports element="accidental" type="yes"/><supports element="beam" type="yes"/><supports element="print" attribute="new-page" type="yes" value="yes"/><supports element="print" attribute="new-system" type="yes" value="yes"/><supports element="stem" type="yes"/></encoding></identification><defaults><scaling><millimeters>7.05556</millimeters><tenths>40</tenths></scaling><page-layout><page-height>1683.78</page-height><page-width>1190.55</page-width><page-margins type="even"><left-margin>56.6929</left-margin><right-margin>56.6929</right-margin><top-margin>56.6929</top-margin><bottom-margin>113.386</bottom-margin></page-margins><page-margins type="odd"><left-margin>56.6929</left-margin><right-margin>56.6929</right-margin><top-margin>56.6929</top-margin><bottom-margin>113.386</bottom-margin></page-margins></page-layout><word-font font-family="FreeSerif" font-size="10"/><lyric-font font-family="FreeSerif" font-size="11"/></defaults><part-list><score-part id="P1"><part-name>Marimba</part-name><score-instrument id="P1-I1"><instrument-name></instrument-name></score-instrument><midi-device id="P1-I1" port="1"></midi-device><midi-instrument id="P1-I1"><midi-channel>1</midi-channel><midi-program>13</midi-program><volume>78.7402</volume><pan>0</pan></midi-instrument></score-part></part-list><part id="P1"><measure number="1" width="165.79"><print><system-layout><system-margins><left-margin>0.00</left-margin><right-margin>0.00</right-margin></system-margins><top-system-distance>70.00</top-system-distance></system-layout></print><attributes><divisions>4</divisions><key><fifths>3</fifths></key><time><beats>4</beats><beat-type>4</beat-type></time><clef><sign>F</sign><line>4</line></clef></attributes><direction placement="above"><direction-type><metronome parentheses="no" default-x="-35.96" relative-y="20.00"><beat-unit>quarter</beat-unit><per-minute>102</per-minute></metronome></direction-type><sound tempo="102"/></direction><note><rest/><duration>16</duration><voice>1</voice></note></measure><measure number="2" width="67.31"><note><rest/><duration>16</duration><voice>1</voice></note></measure><measure number="3" width="67.31"><note><rest/><duration>16</duration><voice>1</voice></note></measure><measure number="4" width="135.98"><note default-x="10.00" default-y="-15.00" dynamics="133.33"><pitch><step>E</step><octave>3</octave></pitch><duration>6</duration><voice>1</voice><type>quarter</type><dot/><stem>down</stem><voice>1</voice>
<lyric>
<syllabic>begin</syllabic>
<text>drop</text>
</lyric>
</note><note default-x="48.30" default-y="10.00" dynamics="88.89"><pitch><step>C</step><alter>1</alter><octave>4</octave></pitch><duration>2</duration><voice>1</voice><type>eighth</type><stem>down</stem><voice>1</voice>
<lyric>
<syllabic>end</syllabic>
<text>dead</text>
</lyric>
</note><note default-x="71.56" default-y="15.00" dynamics="133.33"><pitch><step>D</step><octave>4</octave></pitch><duration>4</duration><voice>1</voice><type>quarter</type><stem>down</stem><voice>1</voice>
<lyric>
<syllabic>single</syllabic>
<text>gaze</text>
</lyric>
</note><note default-x="102.97" default-y="10.00" dynamics="88.89"><pitch><step>C</step><alter>1</alter><octave>4</octave></pitch><duration>4</duration><voice>1</voice><type>quarter</type><stem>down</stem><voice>1</voice>
<lyric>
<syllabic>single</syllabic>
<text>e</text>
</lyric>
</note></measure><measure number="5" width="142.98"><note default-x="13.80" default-y="20.00" dynamics="133.33"><pitch><step>E</step><octave>4</octave></pitch><duration>2</duration><voice>1</voice><type>eighth</type><stem>down</stem><voice>1</voice>
<lyric>
<syllabic>begin</syllabic>
<text>in</text>
</lyric>
</note><attributes><clef><sign>G</sign><line>2</line></clef></attributes><note default-x="63.94" default-y="-45.00" dynamics="88.89"><pitch><step>D</step><octave>4</octave></pitch><duration>6</duration><voice>1</voice><type>quarter</type><dot/><stem>up</stem><voice>1</voice>
<lyric>
<syllabic>end</syllabic>
<text>to</text>
</lyric>
</note><note default-x="99.98" default-y="10.00" dynamics="133.33"><pitch><step>A</step><octave>5</octave></pitch><duration>8</duration><voice>1</voice><type>half</type><stem>down</stem><voice>1</voice>
<lyric>
<syllabic>single</syllabic>
<text>o</text>
</lyric>
</note></measure><measure number="6" width="154.06"><note default-x="13.80" default-y="10.00" dynamics="133.33"><pitch><step>A</step><octave>5</octave></pitch><duration>4</duration><voice>1</voice><type>quarter</type><stem>down</stem><voice>1</voice>
<lyric>
<syllabic>begin</syllabic>
<text>two</text>
</lyric>
</note><note default-x="41.58" default-y="-30.00" dynamics="88.89"><pitch><step>G</step><alter>1</alter><octave>4</octave></pitch><duration>4</duration><voice>1</voice><type>quarter</type><stem>up</stem><voice>1</voice>
<lyric>
<syllabic>end</syllabic>
<text>o</text>
</lyric>
</note><note default-x="69.35" default-y="-5.00" dynamics="133.33"><pitch><step>E</step><octave>5</octave></pitch><duration>2</duration><voice>1</voice><type>eighth</type><stem>down</stem><beam number="1">begin</beam><voice>1</voice>
<lyric>
<syllabic>begin</syllabic>
<text>by</text>
</lyric>
</note><note default-x="89.55" default-y="0.00" dynamics="88.89"><pitch><step>F</step><alter>1</alter><octave>5</octave></pitch><duration>1</duration><voice>1</voice><type>16th</type><stem>down</stem><beam number="1">continue</beam><beam number="2">begin</beam><voice>1</voice>
<lyric>
<syllabic>middle</syllabic>
<text></text>
</lyric>
</note><note default-x="105.22" default-y="5.00" dynamics="88.89"><pitch><step>G</step><alter>1</alter><octave>5</octave></pitch><duration>1</duration><voice>1</voice><type>16th</type><stem>down</stem><beam number="1">end</beam><beam number="2">end</beam><voice>1</voice>
<lyric>
<syllabic>end</syllabic>
<text>fours</text>
</lyric>
</note><note default-x="124.69" default-y="10.00" dynamics="88.89"><pitch><step>A</step><octave>5</octave></pitch><duration>4</duration><voice>1</voice><type>quarter</type><stem>down</stem><voice>1</voice>
<lyric>
<syllabic>begin</syllabic>
<text>dream</text>
</lyric>
</note></measure><measure number="7" width="167.70"><note default-x="13.80" default-y="10.00" dynamics="133.33"><pitch><step>A</step><octave>5</octave></pitch><duration>4</duration><voice>1</voice><type>quarter</type><stem>down</stem><voice>1</voice>
<lyric>
<syllabic>end</syllabic>
<text>ing</text>
</lyric>
</note><note default-x="50.99" default-y="10.00" dynamics="88.89"><pitch><step>A</step><octave>5</octave></pitch><duration>2</duration><voice>1</voice><type>eighth</type><stem>down</stem><beam number="1">begin</beam><voice>1</voice>
<lyric>
<syllabic>begin</syllabic>
<text>wha</text>
</lyric>
</note><note default-x="74.25" default-y="10.00" dynamics="88.89"><pitch><step>A</step><octave>5</octave></pitch><duration>2</duration><voice>1</voice><type>eighth</type><stem>down</stem><beam number="1">end</beam><voice>1</voice>
<lyric>
<syllabic>end</syllabic>
<text>a</text>
</lyric>
</note><note default-x="97.52" default-y="15.00" dynamics="133.33"><pitch><step>B</step><octave>5</octave></pitch><duration>6</duration><voice>1</voice><type>quarter</type><dot/><stem>down</stem><voice>1</voice>
<lyric>
<syllabic>begin</syllabic>
<text>a</text>
</lyric>
</note><note default-x="142.86" default-y="-15.00" dynamics="88.89"><pitch><step>C</step><alter>1</alter><octave>5</octave></pitch><duration>2</duration><voice>1</voice><type>eighth</type><stem>down</stem><voice>1</voice>
<lyric>
<syllabic>end</syllabic>
<text>at</text>
</lyric>
</note></measure><measure number="8" width="176.03"><note default-x="10.00" default-y="-10.00" dynamics="133.33"><pitch><step>D</step><octave>5</octave></pitch><duration>4</duration><voice>1</voice><type>quarter</type><stem>down</stem><voice>1</voice>
<lyric>
<syllabic>single</syllabic>
<text>i</text>
</lyric>
</note><note default-x="41.04" default-y="-15.00" dynamics="88.89"><pitch><step>C</step><alter>1</alter><octave>5</octave></pitch><duration>2</duration><voice>1</voice><type>eighth</type><stem>down</stem><beam number="1">begin</beam><voice>1</voice>
<lyric>
<syllabic>single</syllabic>
<text>i</text>
</lyric>
</note><note default-x="63.62" default-y="-15.00" dynamics="88.89"><pitch><step>C</step><alter>1</alter><octave>5</octave></pitch><duration>1</duration><voice>1</voice><type>16th</type><stem>down</stem><beam number="1">continue</beam><beam number="2">begin</beam><voice>1</voice>
<lyric>
<syllabic>single</syllabic>
<text>i</text>
</lyric>
</note><note default-x="79.28" default-y="-10.00" dynamics="88.89"><pitch><step>D</step><octave>5</octave></pitch><duration>1</duration><voice>1</voice><type>16th</type><stem>down</stem><beam number="1">end</beam><beam number="2">end</beam><voice>1</voice>
<lyric>
<syllabic>single</syllabic>
<text>i</text>
</lyric>
</note><note default-x="94.95" default-y="-35.00" dynamics="133.33"><pitch><step>F</step><alter>1</alter><octave>4</octave></pitch><duration>2</duration><voice>1</voice><type>eighth</type><stem>up</stem><voice>1</voice>
<lyric>
<syllabic>single</syllabic>
<text>must</text>
</lyric>
</note><note default-x="120.22" default-y="-10.00" dynamics="88.89"><pitch><step>D</step><octave>5</octave></pitch><duration>4</duration><voice>1</voice><type>quarter</type><stem>down</stem><voice>1</voice>
<lyric>
<syllabic>single</syllabic>
<text>go</text>
</lyric>
</note><note default-x="151.27" default-y="-5.00" dynamics="88.89"><pitch><step>E</step><octave>5</octave></pitch><duration>2</duration><voice>1</voice><type>eighth</type><stem>down</stem><voice>1</voice>
<lyric>
<syllabic>single</syllabic>
<text>o</text>
</lyric>
</note></measure><measure number="9" width="250.50"><print new-system="yes"><system-layout><system-margins><left-margin>0.00</left-margin><right-margin>-0.00</right-margin></system-margins><system-distance>150.00</system-distance></system-layout></print><note default-x="99.19" default-y="-10.00" dynamics="133.33"><pitch><step>D</step><octave>5</octave></pitch><duration>4</duration><voice>1</voice><type>quarter</type><stem>down</stem><voice>1</voice>
<lyric>
<syllabic>single</syllabic>
<text>o</text>
</lyric>
</note><note default-x="129.39" default-y="-15.00" dynamics="111.11"><pitch><step>C</step><alter>1</alter><octave>5</octave></pitch><duration>4</duration><voice>1</voice><type>quarter</type><stem>down</stem><voice>1</voice>
<lyric>
<syllabic>single</syllabic>
<text>o</text>
</lyric>
</note><note default-x="159.59" default-y="-10.00" dynamics="133.33"><pitch><step>D</step><octave>5</octave></pitch><duration>1</duration><voice>1</voice><type>16th</type><stem>down</stem><beam number="1">begin</beam><beam number="2">forward hook</beam><voice>1</voice>
<lyric>
<syllabic>begin</syllabic>
<text>ev</text>
</lyric>
</note><note default-x="175.25" default-y="-5.00" dynamics="111.11"><pitch><step>E</step><octave>5</octave></pitch><duration>3</duration><tie type="start"/><voice>1</voice><type>eighth</type><dot/><stem>down</stem><beam number="1">end</beam><notations><tied type="start"/></notations><voice>1</voice>
<lyric>
<syllabic>middle</syllabic>
<text>ery</text>
</lyric>
</note><note default-x="202.03" default-y="-5.00" dynamics="111.11"><pitch><step>E</step><octave>5</octave></pitch><duration>1</duration><tie type="stop"/><voice>1</voice><type>16th</type><stem>down</stem><beam number="1">begin</beam><beam number="2">forward hook</beam><notations><tied type="stop"/></notations></note><note default-x="217.70" default-y="0.00" dynamics="111.11"><pitch><step>F</step><alter>1</alter><octave>5</octave></pitch><duration>3</duration><voice>1</voice><type>eighth</type><dot/><stem>down</stem><beam number="1">end</beam><voice>1</voice>
<lyric>
<syllabic>end</syllabic>
<text>body</text>
</lyric>
</note></measure><measure number="10" width="141.09"><note default-x="10.00" default-y="5.00" dynamics="133.33"><pitch><step>G</step><alter>1</alter><octave>5</octave></pitch><duration>4</duration><voice>1</voice><type>quarter</type><stem>down</stem><voice>1</voice>
<lyric>
<syllabic>single</syllabic>
<text>knows</text>
</lyric>
</note><note default-x="37.44" default-y="0.00" dynamics="111.11"><pitch><step>F</step><alter>1</alter><octave>5</octave></pitch><duration>4</duration><voice>1</voice><type>quarter</type><stem>down</stem><voice>1</voice>
<lyric>
<syllabic>single</syllabic>
<text>i'll</text>
</lyric>
</note><note default-x="64.88" default-y="10.00" dynamics="133.33"><pitch><step>A</step><octave>5</octave></pitch><duration>2</duration><voice>1</voice><type>eighth</type><stem>down</stem><beam number="1">begin</beam><voice>1</voice>
<lyric>
<syllabic>single</syllabic>
<text>keep</text>
</lyric>
</note><note default-x="82.03" default-y="-35.00" dynamics="111.11"><pitch><step>F</step><alter>1</alter><octave>4</octave></pitch><duration>2</duration><voice>1</voice><type>eighth</type><stem>down</stem><beam number="1">continue</beam><voice>1</voice>
<lyric>
<syllabic>single</syllabic>
<text>a</text>
</lyric>
</note><note default-x="99.17" default-y="-20.00" dynamics="111.11"><pitch><step>B</step><octave>4</octave></pitch><duration>2</duration><voice>1</voice><type>eighth</type><stem>down</stem><beam number="1">continue</beam><voice>1</voice>
<lyric>
<syllabic>single</syllabic>
<text>a</text>
</lyric>
</note><note default-x="116.32" default-y="-25.00" dynamics="111.11"><pitch><step>A</step><octave>4</octave></pitch><duration>2</duration><voice>1</voice><type>eighth</type><stem>down</stem><beam number="1">end</beam><voice>1</voice>
<lyric>
<syllabic>single</syllabic>
<text>a</text>
</lyric>
</note></measure><measure number="11" width="239.73"><attributes><clef><sign>F</sign><line>4</line></clef></attributes><note default-x="39.42" default-y="-10.00" dynamics="133.33"><pitch><step>F</step><alter>1</alter><octave>3</octave></pitch><duration>2</duration><voice>1</voice><type>eighth</type><stem>down</stem><beam number="1">begin</beam><voice>1</voice>
<lyric>
<syllabic>single</syllabic>
<text>a</text>
</lyric>
</note><note default-x="63.96" default-y="15.00" dynamics="111.11"><pitch><step>D</step><octave>4</octave></pitch><duration>2</duration><voice>1</voice><type>eighth</type><stem>down</stem><beam number="1">end</beam><voice>1</voice>
<lyric>
<syllabic>single</syllabic>
<text>a</text>
</lyric>
</note><note default-x="88.49" default-y="15.00" dynamics="111.11"><pitch><step>D</step><octave>4</octave></pitch><duration>4</duration><voice>1</voice><type>quarter</type><stem>down</stem><voice>1</voice>
<lyric>
<syllabic>single</syllabic>
<text>a</text>
</lyric>
</note><note default-x="127.75" default-y="15.00" dynamics="133.33"><pitch><step>D</step><octave>4</octave></pitch><duration>2</duration><voice>1</voice><type>eighth</type><stem>down</stem><voice>1</voice>
<lyric>
<syllabic>single</syllabic>
<text>a</text>
</lyric>
</note><note default-x="152.29" default-y="15.00" dynamics="111.11"><pitch><step>D</step><octave>4</octave></pitch><duration>4</duration><voice>1</voice><type>quarter</type><stem>down</stem><voice>1</voice>
<lyric>
<syllabic>single</syllabic>
<text>a</text>
</lyric>
</note><attributes><clef><sign>G</sign><line>2</line></clef></attributes><note default-x="205.35" default-y="-50.00" dynamics="111.11"><pitch><step>C</step><alter>1</alter><octave>4</octave></pitch><duration>2</duration><voice>1</voice><type>eighth</type><stem>up</stem><voice>1</voice>
<lyric>
<syllabic>single</syllabic>
<text>a</text>
</lyric>
</note></measure><measure number="12" width="143.46"><note default-x="10.00" default-y="-20.00" dynamics="133.33"><pitch><step>B</step><octave>4</octave></pitch><duration>6</duration><voice>1</voice><type>quarter</type><dot/><stem>down</stem><voice>1</voice>
<lyric>
<syllabic>single</syllabic>
<text>a</text>
</lyric>
</note><note default-x="45.76" default-y="-50.00" dynamics="111.11"><pitch><step>C</step><alter>1</alter><octave>4</octave></pitch><duration>2</duration><voice>1</voice><type>eighth</type><stem>up</stem><voice>1</voice>
<lyric>
<syllabic>single</syllabic>
<text>a</text>
</lyric>
</note><note default-x="71.04" default-y="-45.00" dynamics="133.33"><pitch><step>D</step><octave>4</octave></pitch><duration>4</duration><voice>1</voice><type>quarter</type><stem>up</stem><voice>1</voice>
<lyric>
<syllabic>single</syllabic>
<text>a</text>
</lyric>
</note><note default-x="100.36" default-y="-40.00" dynamics="111.11"><pitch><step>E</step><octave>4</octave></pitch><duration>2</duration><voice>1</voice><type>eighth</type><stem>up</stem><beam number="1">begin</beam><voice>1</voice>
<lyric>
<syllabic>single</syllabic>
<text>a</text>
</lyric>
</note><note default-x="118.69" default-y="-45.00" dynamics="111.11"><pitch><step>D</step><octave>4</octave></pitch><duration>2</duration><voice>1</voice><type>eighth</type><stem>up</stem><beam number="1">end</beam><voice>1</voice>
<lyric>
<syllabic>single</syllabic>
<text>a</text>
</lyric>
</note></measure><measure number="13" width="161.31"><note default-x="10.00" default-y="-10.00" dynamics="133.33"><pitch><step>D</step><octave>5</octave></pitch><duration>4</duration><voice>1</voice><type>quarter</type><stem>down</stem><voice>1</voice>
<lyric>
<syllabic>single</syllabic>
<text>a</text>
</lyric>
</note><note default-x="40.20" default-y="-15.00" dynamics="111.11"><pitch><step>C</step><alter>1</alter><octave>5</octave></pitch><duration>4</duration><voice>1</voice><type>quarter</type><stem>down</stem><voice>1</voice>
<lyric>
<syllabic>single</syllabic>
<text>a</text>
</lyric>
</note><note default-x="70.40" default-y="-10.00" dynamics="133.33"><pitch><step>D</step><octave>5</octave></pitch><duration>1</duration><voice>1</voice><type>16th</type><stem>down</stem><beam number="1">begin</beam><beam number="2">forward hook</beam><voice>1</voice>
<lyric>
<syllabic>single</syllabic>
<text>a</text>
</lyric>
</note><note default-x="86.06" default-y="-5.00" dynamics="111.11"><pitch><step>E</step><octave>5</octave></pitch><duration>3</duration><tie type="start"/><voice>1</voice><type>eighth</type><dot/><stem>down</stem><beam number="1">end</beam><notations><tied type="start"/></notations><voice>1</voice>
<lyric>
<syllabic>single</syllabic>
<text>a</text>
</lyric>
</note><note default-x="112.84" default-y="-5.00" dynamics="111.11"><pitch><step>E</step><octave>5</octave></pitch><duration>1</duration><tie type="stop"/><voice>1</voice><type>16th</type><stem>down</stem><beam number="1">begin</beam><beam number="2">forward hook</beam><notations><tied type="stop"/></notations></note><note default-x="128.51" default-y="0.00" dynamics="111.11"><pitch><step>F</step><alter>1</alter><octave>5</octave></pitch><duration>3</duration><voice>1</voice><type>eighth</type><dot/><stem>down</stem><beam number="1">end</beam><voice>1</voice>
<lyric>
<syllabic>single</syllabic>
<text>a</text>
</lyric>
</note></measure><measure number="14" width="141.09"><note default-x="10.00" default-y="5.00" dynamics="133.33"><pitch><step>G</step><alter>1</alter><octave>5</octave></pitch><duration>4</duration><voice>1</voice><type>quarter</type><stem>down</stem><voice>1</voice>
<lyric>
<syllabic>single</syllabic>
<text>light</text>
</lyric>
</note><note default-x="37.44" default-y="0.00" dynamics="111.11"><pitch><step>F</step><alter>1</alter><octave>5</octave></pitch><duration>4</duration><voice>1</voice><type>quarter</type><stem>down</stem><voice>1</voice>
<lyric>
<syllabic>single</syllabic>
<text>lounge</text>
</lyric>
</note><note default-x="64.88" default-y="10.00" dynamics="133.33"><pitch><step>A</step><octave>5</octave></pitch><duration>2</duration><voice>1</voice><type>eighth</type><stem>down</stem><beam number="1">begin</beam><voice>1</voice>
<lyric>
<syllabic>single</syllabic>
<text>e</text>
</lyric>
</note><note default-x="82.03" default-y="-35.00" dynamics="111.11"><pitch><step>F</step><alter>1</alter><octave>4</octave></pitch><duration>2</duration><voice>1</voice><type>eighth</type><stem>down</stem><beam number="1">continue</beam><voice>1</voice>
<lyric>
<syllabic>single</syllabic>
<text>e</text>
</lyric>
</note><note default-x="99.17" default-y="-20.00" dynamics="111.11"><pitch><step>B</step><octave>4</octave></pitch><duration>2</duration><voice>1</voice><type>eighth</type><stem>down</stem><beam number="1">continue</beam><voice>1</voice>
<lyric>
<syllabic>single</syllabic>
<text>e</text>
</lyric>
</note><note default-x="116.32" default-y="-25.00" dynamics="111.11"><pitch><step>A</step><octave>4</octave></pitch><duration>2</duration><voice>1</voice><type>eighth</type><stem>down</stem><beam number="1">end</beam><voice>1</voice>
<lyric>
<syllabic>single</syllabic>
<text>is</text>
</lyric>
</note></measure><measure number="15" width="627.81"><print new-system="yes"><system-layout><system-margins><left-margin>0.00</left-margin><right-margin>0.00</right-margin></system-margins><system-distance>150.00</system-distance></system-layout></print><attributes><clef><sign>F</sign><line>4</line></clef></attributes><note default-x="130.61" default-y="-10.00" dynamics="133.33"><pitch><step>F</step><alter>1</alter><octave>3</octave></pitch><duration>2</duration><voice>1</voice><type>eighth</type><stem>down</stem><beam number="1">begin</beam><voice>1</voice>
<lyric>
<syllabic>single</syllabic>
<text>you</text>
</lyric>
</note><note default-x="197.53" default-y="15.00" dynamics="111.11"><pitch><step>D</step><octave>4</octave></pitch><duration>2</duration><voice>1</voice><type>eighth</type><stem>down</stem><beam number="1">end</beam><voice>1</voice>
<lyric>
<syllabic>single</syllabic>
<text>u</text>
</lyric>
</note><note default-x="264.44" default-y="15.00" dynamics="111.11"><pitch><step>D</step><octave>4</octave></pitch><duration>4</duration><voice>1</voice><type>quarter</type><stem>down</stem><voice>1</voice>
<lyric>
<syllabic>single</syllabic>
<text>u</text>
</lyric>
</note><note default-x="371.51" default-y="15.00" dynamics="133.33"><pitch><step>D</step><octave>4</octave></pitch><duration>2</duration><voice>1</voice><type>eighth</type><stem>down</stem><voice>1</voice>
<lyric>
<syllabic>single</syllabic>
<text>u</text>
</lyric>
</note><note default-x="438.43" default-y="15.00" dynamics="111.11"><pitch><step>D</step><octave>4</octave></pitch><duration>4</duration><voice>1</voice><type>quarter</type><stem>down</stem><voice>1</voice>
<lyric>
<syllabic>single</syllabic>
<text>u</text>
</lyric>
</note><attributes><clef><sign>G</sign><line>2</line></clef></attributes><note default-x="559.29" default-y="-50.00" dynamics="111.11"><pitch><step>C</step><alter>1</alter><octave>4</octave></pitch><duration>2</duration><voice>1</voice><type>eighth</type><stem>up</stem><voice>1</voice>
<lyric>
<syllabic>single</syllabic>
<text>just</text>
</lyric>
</note></measure><measure number="16" width="449.35"><note default-x="10.00" default-y="-20.00" dynamics="133.33"><pitch><step>B</step><octave>4</octave></pitch><duration>6</duration><voice>1</voice><type>quarter</type><dot/><stem>down</stem><voice>1</voice>
<lyric>
<syllabic>single</syllabic>
<text>leave</text>
</lyric>
</note><note default-x="137.69" default-y="-50.00" dynamics="111.11"><pitch><step>C</step><alter>1</alter><octave>4</octave></pitch><duration>2</duration><voice>1</voice><type>eighth</type><stem>up</stem><voice>1</voice>
<lyric>
<syllabic>single</syllabic>
<text>my</text>
</lyric>
</note><note default-x="203.14" default-y="-45.00" dynamics="133.33"><pitch><step>D</step><octave>4</octave></pitch><duration>4</duration><voice>1</voice><type>quarter</type><stem>up</stem><voice>1</voice>
<lyric>
<syllabic>begin</syllabic>
<text>am</text>
</lyric>
</note><note default-x="307.86" default-y="-40.00" dynamics="111.11"><pitch><step>E</step><octave>4</octave></pitch><duration>2</duration><voice>1</voice><type>eighth</type><stem>up</stem><beam number="1">begin</beam><voice>1</voice>
<lyric>
<syllabic>middle</syllabic>
<text>bi</text>
</lyric>
</note><note default-x="373.30" default-y="-45.00" dynamics="111.11"><pitch><step>D</step><octave>4</octave></pitch><duration>2</duration><voice>1</voice><type>eighth</type><stem>up</stem><beam number="1">end</beam><voice>1</voice>
<lyric>
<syllabic>end</syllabic>
<text>tion</text>
</lyric>
</note><barline location="right"><bar-style>light-heavy</bar-style></barline></measure></part></score-partwise>